<?xml version="1.0" encoding="UTF-8"?>
<svg id="Ebene_1" data-name="Ebene 1" xmlns="http://www.w3.org/2000/svg" viewBox="0 0 168.75 24.92">
  <defs>
    <style>
      .cls-1, .cls-2 {
        letter-spacing: -.03em;
      }

      .cls-1, .cls-3, .cls-4, .cls-5 {
        font-family: Rosario-Regular, Rosario;
      }

      .cls-2 {
        font-family: Rosario-Bold, Rosario;
      }

      .cls-6 {
        letter-spacing: -.08em;
      }

      .cls-7 {
        letter-spacing: -.04em;
      }

      .cls-8, .cls-9 {
        fill: #e35252;
      }

      .cls-3 {
        letter-spacing: -.03em;
      }

      .cls-9 {
        font-size: 16.37px;
      }

      .cls-10 {
        letter-spacing: -.05em;
      }

      .cls-11 {
        letter-spacing: -.03em;
      }

      .cls-4 {
        letter-spacing: -.04em;
      }

      .cls-5 {
        fill: #848484;
        font-size: 5.09px;
      }
    </style>
  </defs>
  <g>
    <path class="cls-8" d="M3.32,6.08v-.15c-.04-.35-.07-.79-.11-1.22-.16,.56-.33,1.19-.45,1.72-.04,.19-.14,.62-.52,.93-.37,.3-.74,.31-1.66,.33h-.17c.18,.4,.41,.76,.74,1.07,.14,.16,.29,.31,.43,.47,.55,.57,1.09,1.14,1.64,1.71,.22,.22,.43,.44,.65,.66-.17-.66-.31-2.15-.56-5.53Z"/>
    <path class="cls-8" d="M13.28,4.98s0-.06-.01-.09c-.31-1.23-1-2.15-2.12-2.67-1.45-.67-2.82-.51-4.1,.48-.12,.09-.23,.2-.32,.28-.27-.2-.52-.4-.78-.56-.9-.57-1.88-.72-2.91-.5-.82,.18-1.5,.64-2.06,1.26-.46,.5-.75,1.11-.87,1.8-.13,.58-.12,1.15,0,1.73h.43c.74-.03,.99-.04,1.08-.12,.11-.09,.15-.27,.18-.38,.88-3.78,1.3-3.76,1.62-3.77,.63,.01,.7,.61,.9,3.41v.15c.14,1.7,.24,2.88,.32,3.69,.12-.52,.24-1.09,.34-1.56,.67-3.16,.85-3.91,1.54-3.83,.45,.05,.53,.47,.63,.95,.1,.5,.26,1.24,.68,2.2,.27,.62,.44,.82,.63,.96,.35,.26,.73,.27,1.63,.27h.11c.5,0,1.22,0,2.11,.02,.51-.57,.84-1.23,.98-2,.01-.05,.03-.09,.03-.14,.1-.53,.07-1.06-.03-1.59Z"/>
    <path class="cls-8" d="M10.18,9.69h-.11c-.92,0-1.59,0-2.23-.46-.38-.28-.63-.64-.95-1.36-.24-.55-.41-1.05-.52-1.47-.15,.62-.31,1.36-.43,1.95-.67,3.16-.86,3.82-1.44,3.82-.02,0-.05,0-.07,0,0,0,0,0,0,0,.09,.1,.19,.19,.28,.29,.4,.42,.8,.85,1.2,1.27,.47,.49,1.08,.49,1.55,0,.43-.45,.86-.89,1.29-1.33,.46-.48,.92-.96,1.38-1.44,.08-.08,.16-.16,.24-.24,.28-.29,.56-.59,.84-.88,.04-.04,.09-.09,.13-.13-.46,0-.86,0-1.16,0Z"/>
  </g>
  <text class="cls-9" transform="translate(17.26 14.18)"><tspan class="cls-2" x="0" y="0">Sanitätsschule</tspan><tspan class="cls-3" x="93.62" y="0" xml:space="preserve"> Süd</tspan><tspan class="cls-4" x="122.19" y="0">w</tspan><tspan class="cls-1" x="132.26" y="0">est</tspan></text>
  <text class="cls-5" transform="translate(17.32 23.47)"><tspan class="cls-6" x="0" y="0">F</tspan><tspan class="cls-11" x="2.17" y="0">ür sichere Arbeitsplätze und St</tspan><tspan class="cls-7" x="63.6" y="0">r</tspan><tspan class="cls-11" x="65.15" y="0">aßen im Süden Deutschland</tspan><tspan class="cls-10" x="121.99" y="0">s</tspan><tspan class="cls-11" x="123.93" y="0">.</tspan></text>
</svg>